# xmcd
#
# Track frame offsets:
#   150
#   21095
#   41427
#   55465
#   74677
#   89822
#   101945
#   116797
#   129487
#   142567
#   153550
#   169897
#
# Disc length: 2422 seconds
#
# Revision: 0
# Processed by: cddbd v1.5.2PL0 Copyright (c) Steve Scherf et al.
# Submitted via: uFREEDB ActiveX Control 1.5
#
DISCID=af09740c
DTITLE=Diversos - Grandes Sucessos - Tributo a Zezé di Carmago e Luciano
DYEAR=2000
DGENRE=Sertanejo
TTITLE0=Cada Volta é um recomeço
TTITLE1=Felicidade, Que Saudade de Você
TTITLE2=Faz Mais uma Vez Comigo
TTITLE3=Preciso Ser Amado
TTITLE4=Na Hora H
TTITLE5=Vicendo por Viver
TTITLE6=Você Vai Ver
TTITLE7=Doce Paixão
TTITLE8=Foi a Primeira Vez
TTITLE9=Muda de Vida
TTITLE10=Rédeas do Possante
TTITLE11=Tudo de Novo
EXTD=
EXTT0=
EXTT1=
EXTT2=
EXTT3=
EXTT4=
EXTT5=
EXTT6=
EXTT7=
EXTT8=
EXTT9=
EXTT10=
EXTT11=
PLAYORDER=
